<svg xmlns="http://www.w3.org/2000/svg" viewBox="0 0 1200 675">
  <defs><linearGradient id="bg2" x1="0" y1="0" x2="1" y2="1"><stop stop-color="#f8fafc"/><stop offset="1" stop-color="#e2e8f0"/></linearGradient><marker id="a2" markerWidth="10" markerHeight="10" refX="8" refY="3" orient="auto"><path d="M0 0L9 3 0 6Z" fill="#f97316"/></marker></defs>
  <rect width="1200" height="675" fill="url(#bg2)"/>
  <text x="70" y="82" fill="#ea580c" font-family="Arial" font-size="21" font-weight="700" letter-spacing="3">BROWNFIELD MECHANICAL LOGIC</text>
  <text x="70" y="128" fill="#0f172a" font-family="Arial" font-size="40" font-weight="800">Safe drainage, isolation &amp; air admission</text>
  <g stroke="#0f172a" stroke-width="5" fill="#fff"><path d="M180 230Q180 190 220 190H480Q520 190 520 230V470H180Z"/><ellipse cx="350" cy="230" rx="170" ry="40" fill="#f8fafc"/><path d="M180 400H520" stroke="#38bdf8" stroke-width="7"/></g>
  <text x="350" y="330" text-anchor="middle" fill="#0f172a" font-family="Arial" font-size="26" font-weight="800">Existing tank</text>
  <text x="350" y="365" text-anchor="middle" fill="#475569" font-family="Arial" font-size="17">controlled boundary</text>
  <path d="M350 190V155H625" fill="none" stroke="#64748b" stroke-width="6"/>
  <circle cx="625" cy="155" r="18" fill="#fff" stroke="#f97316" stroke-width="5"/>
  <text x="665" y="162" fill="#475569" font-family="Arial" font-size="18">Controlled air admission</text>
  <g fill="none" stroke="#0f172a" stroke-width="7"><path d="M270 470V535H705"/><path d="M430 470V585H705"/></g>
  <g stroke="#f97316" stroke-width="5" fill="#fff"><path d="M365 515l18 20-18 20-18-20Z"/><path d="M530 565l18 20-18 20-18-20Z"/></g>
  <g fill="none" stroke="#f97316" stroke-width="5" marker-end="url(#a2)"><path d="M705 535H980"/><path d="M705 585H980"/></g>
  <text x="430" y="516" fill="#475569" font-family="Arial" font-size="16">Isolation A</text><text x="595" y="566" fill="#475569" font-family="Arial" font-size="16">Isolation B</text>
  <rect x="930" y="485" width="190" height="140" rx="26" fill="#0f172a"/><text x="1025" y="548" text-anchor="middle" fill="#fff" font-family="Arial" font-size="23" font-weight="800">Controlled</text><text x="1025" y="582" text-anchor="middle" fill="#cbd5e1" font-family="Arial" font-size="18">receiving point</text>
</svg>
